<?xml version="1.0" standalone="no"?>
<!DOCTYPE svg PUBLIC "-//W3C//DTD SVG 20010904//EN"
 "http://www.w3.org/TR/2001/REC-SVG-20010904/DTD/svg10.dtd">
<svg version="1.0" xmlns="http://www.w3.org/2000/svg"
 width="1080.000000pt" height="1080.000000pt" viewBox="0 0 1080.000000 1080.000000"
 preserveAspectRatio="xMidYMid meet">

<g transform="translate(0.000000,1080.000000) scale(0.100000,-0.100000)"
fill="#000000" stroke="none">
<path d="M8065 8308 c-94 -30 -269 -66 -392 -80 -80 -8 -113 -16 -113 -25 0
-7 11 -13 25 -13 43 0 94 -27 100 -52 3 -13 4 -392 3 -843 -3 -793 -4 -821
-23 -852 -10 -18 -35 -40 -54 -49 -33 -16 -37 -16 -71 2 -21 11 -43 35 -55 59
-19 38 -20 63 -23 550 -1 281 -2 527 -2 549 0 45 4 45 -149 3 -91 -25 -273
-59 -393 -72 -66 -7 -75 -21 -20 -31 20 -4 49 -13 65 -21 l27 -14 0 -467 c0
-525 1 -518 -72 -557 -36 -19 -38 -19 -71 -2 -18 10 -42 33 -53 50 -18 30 -19
60 -24 452 -5 408 -6 422 -29 485 -27 77 -65 131 -118 170 -83 61 -219 83
-336 56 -80 -19 -117 -36 -174 -83 -52 -42 -80 -81 -108 -149 l-22 -53 -16 52
c-22 69 -66 138 -110 171 -110 84 -299 97 -445 31 -61 -28 -154 -113 -173
-158 l-14 -32 -7 40 c-4 22 -7 68 -7 103 -1 70 -6 73 -79 48 -70 -25 -261 -65
-392 -81 -69 -9 -127 -19 -130 -21 -8 -9 24 -24 51 -24 15 0 38 -9 53 -21 l26
-20 0 -462 c0 -527 2 -513 -80 -554 -59 -30 -73 -29 -113 11 -67 66 -70 85
-76 531 l-6 400 -29 58 c-108 220 -532 272 -998 121 l-108 -35 0 -162 1 -162
24 45 c108 205 417 391 574 347 47 -12 95 -64 116 -124 22 -61 34 -325 16
-347 -6 -7 -37 -17 -69 -21 -163 -19 -394 -85 -504 -142 -169 -88 -237 -209
-196 -346 17 -55 97 -140 165 -173 80 -39 194 -45 295 -14 83 24 179 78 261
144 l55 45 6 -33 c11 -56 61 -120 118 -152 l53 -29 553 -3 c492 -2 552 -1 552
13 0 8 -8 15 -17 15 -33 0 -84 40 -101 78 -14 33 -16 84 -15 437 1 255 5 415
12 441 35 132 170 207 241 136 15 -16 33 -46 39 -68 7 -25 11 -191 11 -474 0
-432 0 -436 -22 -480 -19 -36 -32 -48 -68 -61 -25 -9 -44 -21 -43 -25 2 -5
170 -10 374 -12 285 -2 370 1 367 10 -2 6 -17 16 -34 21 -50 16 -82 55 -94
113 -8 35 -10 178 -8 421 3 360 4 369 27 428 15 38 41 77 71 108 42 42 52 47
93 47 38 0 49 -5 71 -31 14 -17 29 -43 34 -57 4 -15 7 -232 7 -482 0 -431 -1
-457 -19 -487 -19 -32 -37 -44 -89 -63 -16 -5 -25 -14 -22 -20 4 -7 369 -10
1066 -10 908 0 1059 2 1059 14 0 8 -13 17 -29 21 -39 8 -81 55 -92 101 -4 22
-9 445 -9 942 0 853 -1 902 -17 901 -10 -1 -45 -10 -78 -21z m-3995 -1487 l0
-179 -37 -32 c-53 -47 -109 -70 -173 -70 -67 0 -107 22 -141 76 -20 33 -24 52
-24 121 0 76 2 84 31 120 17 21 49 51 72 67 45 32 177 75 235 75 l37 1 0 -179z"/>
<path d="M1382 8078 c3 -7 17 -15 32 -19 39 -11 73 -45 88 -88 10 -28 13 -197
13 -756 0 -700 -1 -721 -20 -760 -14 -29 -33 -47 -67 -64 -27 -12 -45 -27 -42
-32 3 -5 170 -9 380 -9 316 0 374 2 374 14 0 8 -13 17 -29 21 -39 8 -78 49
-91 94 -5 20 -10 150 -10 289 l0 253 72 77 c40 42 76 78 80 80 3 2 23 -27 44
-65 20 -37 83 -151 139 -253 56 -102 112 -207 124 -235 66 -152 43 -222 -81
-243 -23 -4 -43 -13 -46 -20 -3 -9 107 -12 512 -12 348 0 516 3 516 10 0 11 0
11 -75 29 -132 31 -166 79 -545 763 -206 371 -228 415 -216 433 23 36 232 219
328 288 100 73 314 184 362 189 16 2 31 9 34 16 3 9 -73 12 -357 12 -202 0
-361 -4 -361 -9 0 -5 19 -13 43 -19 105 -27 131 -133 66 -264 -36 -72 -98
-146 -369 -438 -120 -130 -229 -249 -244 -266 l-26 -29 3 450 c2 513 0 500 83
536 24 11 44 24 44 29 0 6 -146 10 -381 10 -291 0 -380 -3 -377 -12z"/>
<path d="M7119 8077 c-98 -37 -154 -124 -153 -237 1 -170 140 -272 312 -228
59 15 132 85 150 144 37 127 -9 253 -111 306 -52 26 -149 33 -198 15z"/>
<path d="M8730 7590 c-101 -14 -205 -39 -322 -77 l-108 -34 0 -156 c0 -86 3
-154 6 -151 3 3 20 29 38 57 97 155 302 298 456 319 81 12 125 0 166 -44 52
-54 66 -110 71 -281 l5 -152 -23 -5 c-13 -3 -55 -11 -94 -16 -170 -26 -359
-81 -467 -137 -92 -48 -151 -103 -184 -169 -23 -47 -26 -64 -22 -117 3 -35 12
-76 21 -93 25 -48 94 -111 155 -141 52 -25 67 -28 162 -28 83 0 117 5 164 23
73 27 149 72 226 134 l58 47 6 -33 c11 -56 61 -120 118 -152 53 -29 55 -29
238 -32 178 -2 184 -2 160 15 -48 34 -80 75 -96 126 -14 43 -18 119 -23 447
-6 376 -7 397 -28 442 -41 90 -136 158 -268 194 -71 19 -318 27 -415 14z m310
-769 l0 -179 -37 -32 c-81 -72 -197 -92 -263 -47 -68 46 -99 164 -66 252 19
49 80 109 135 133 60 26 154 51 194 51 l37 1 0 -179z"/>
<path d="M4125 6159 c-134 -40 -314 -75 -463 -92 -67 -7 -125 -16 -128 -20
-12 -12 8 -27 37 -27 41 0 95 -24 108 -48 15 -28 15 -1991 0 -2045 -14 -51
-55 -95 -104 -112 -22 -7 -42 -12 -44 -10 -1 2 3 37 10 77 18 107 16 280 -5
358 -84 315 -398 618 -732 705 -32 8 -66 15 -76 15 -35 0 -17 18 25 25 247 38
463 167 539 323 31 64 33 72 33 182 0 110 -2 118 -33 182 -95 194 -314 297
-696 328 -71 5 -383 10 -693 10 -512 0 -564 -1 -561 -16 2 -9 20 -22 40 -29
57 -19 83 -40 104 -82 18 -36 19 -67 19 -526 l0 -488 -87 -33 c-113 -43 -184
-86 -270 -165 -168 -155 -248 -345 -248 -589 0 -466 267 -865 694 -1037 181
-73 361 -101 590 -92 654 27 1140 303 1307 742 l31 80 455 -3 c425 -2 454 -1
451 15 -2 10 -18 20 -38 26 -40 10 -75 39 -98 82 -15 27 -17 133 -22 1160 -5
1121 -5 1130 -25 1132 -11 0 -65 -12 -120 -28z m-1797 -199 c180 -30 291 -117
339 -268 14 -46 18 -92 18 -232 0 -154 -3 -184 -23 -247 -53 -171 -158 -233
-399 -233 l-113 0 0 495 0 495 58 0 c31 0 85 -5 120 -10z m28 -1033 c366 -77
610 -748 469 -1292 -111 -426 -425 -638 -883 -595 -254 24 -458 103 -635 247
-236 194 -379 519 -364 833 6 126 24 199 77 305 98 199 268 338 486 396 106
29 309 32 404 6 214 -58 376 -221 425 -429 19 -82 19 -228 0 -303 -31 -118
-112 -212 -205 -240 -15 -4 -4 8 30 32 155 109 182 352 54 475 -58 55 -125 81
-209 81 -184 -1 -313 -122 -323 -302 -7 -134 50 -237 165 -298 188 -100 408
-33 498 151 107 219 49 522 -137 708 l-58 58 0 83 c0 46 3 87 7 90 11 11 134
7 199 -6z"/>
<path d="M6779 6185 c-15 -15 -339 -87 -471 -105 -224 -31 -218 -29 -218 -45
0 -10 11 -15 35 -15 46 0 101 -23 114 -48 15 -28 15 -1991 0 -2045 -15 -54
-55 -94 -116 -116 l-53 -19 -40 29 c-45 33 -82 99 -99 177 -7 34 -11 204 -11
485 0 238 -5 461 -10 496 -45 316 -409 458 -962 376 -166 -25 -395 -88 -480
-131 l-28 -15 0 -194 c0 -107 3 -195 8 -195 4 0 23 28 42 62 43 76 169 210
259 277 121 90 297 161 398 161 114 0 202 -86 232 -228 12 -59 15 -402 4 -402
-32 0 -282 -46 -382 -71 -248 -61 -407 -135 -512 -239 -84 -83 -113 -152 -106
-250 5 -87 35 -149 100 -214 199 -200 524 -175 819 62 47 39 89 68 92 64 3 -3
6 -14 6 -24 0 -38 52 -128 96 -167 89 -79 55 -75 817 -79 624 -3 678 -1 675
14 -2 9 -21 22 -43 30 -49 16 -90 60 -104 111 -6 22 -11 144 -11 289 l0 250
29 28 c17 16 36 26 43 24 15 -6 250 -409 303 -520 60 -124 47 -176 -48 -193
-21 -4 -36 -12 -34 -19 3 -8 155 -12 551 -14 518 -2 547 -1 544 15 -2 14 -17
20 -60 25 -32 4 -74 16 -96 27 -56 29 -160 145 -245 273 -106 162 -468 780
-465 794 4 15 153 137 242 198 133 91 261 141 392 154 40 4 69 12 72 20 3 9
-80 12 -392 12 -265 0 -396 -3 -396 -10 0 -12 10 -16 64 -25 98 -16 125 -112
64 -227 -35 -66 -51 -82 -363 -347 l-200 -169 -5 836 c-5 833 -5 837 -25 840
-12 2 -23 0 -26 -3z m-1389 -1814 l0 -239 -49 -36 c-219 -161 -431 -79 -431
167 0 112 39 182 138 246 72 46 233 97 315 100 l27 1 0 -239z"/>
<path d="M8835 5373 c-187 -16 -402 -63 -567 -123 l-88 -32 1 -201 c0 -160 3
-198 12 -183 80 126 116 172 183 236 169 160 378 259 526 248 82 -6 133 -43
175 -128 42 -84 54 -168 51 -350 l-3 -145 -40 -7 c-22 -5 -103 -19 -180 -34
-236 -43 -440 -108 -564 -181 -249 -146 -300 -385 -119 -563 204 -201 562
-160 847 96 28 26 53 45 54 43 2 -2 11 -29 20 -60 35 -115 120 -187 247 -209
37 -6 146 -10 254 -8 l189 3 -46 30 c-55 34 -92 83 -115 152 -13 41 -17 124
-22 553 -5 484 -6 507 -27 557 -71 177 -230 271 -508 303 -86 9 -193 11 -280
3z m293 -1000 l2 -231 -42 -36 c-89 -76 -213 -112 -294 -86 -59 19 -87 43
-119 102 -27 48 -30 62 -30 143 0 80 3 95 27 137 33 56 80 96 155 133 66 32
226 75 268 72 l30 -2 3 -232z"/>
<path d="M5184 3405 c-9 -14 -14 -29 -10 -32 8 -8 58 28 58 42 -2 21 -32 15
-48 -10z"/>
<path d="M3907 3323 c-4 -3 -7 -75 -7 -159 0 -123 3 -153 14 -157 21 -8 23 6
18 131 -3 80 -2 112 7 112 6 0 35 -47 63 -105 29 -58 57 -105 63 -105 6 0 30
39 54 88 77 157 75 157 81 7 7 -185 24 -163 28 35 l2 160 -23 0 c-19 0 -31
-17 -77 -111 -30 -61 -58 -113 -62 -115 -4 -3 -34 47 -65 111 -54 108 -74 131
-96 108z"/>
<path d="M5072 3168 l3 -163 108 -3 c102 -3 107 -2 107 18 0 19 -6 20 -95 20
l-95 0 0 55 0 54 83 3 c65 2 82 6 82 18 0 12 -17 16 -83 18 l-83 3 3 52 3 52
93 3 c73 2 92 6 92 17 0 12 -20 15 -110 15 l-110 0 2 -162z"/>
<path d="M6112 3168 l3 -163 86 1 c66 1 94 5 119 20 118 69 108 237 -17 290
-19 8 -67 14 -113 14 l-80 0 2 -162z m172 118 c68 -28 100 -103 72 -169 -22
-54 -67 -77 -148 -77 l-68 0 0 123 c0 68 3 127 7 130 11 12 103 7 137 -7z"/>
<path d="M7212 3168 c3 -137 5 -163 18 -163 13 0 15 24 15 160 0 145 -2 160
-18 163 -16 3 -17 -8 -15 -160z"/>
<path d="M8139 3307 c-60 -31 -94 -97 -84 -163 15 -101 125 -166 220 -130 53
21 75 43 52 52 -9 3 -26 -1 -39 -10 -52 -37 -154 -7 -185 54 -31 61 -2 144 61
174 44 21 74 20 119 -3 31 -16 38 -16 48 -5 9 11 3 18 -32 34 -58 26 -106 25
-160 -3z"/>
<path d="M9173 3173 c-39 -87 -69 -161 -67 -165 9 -15 32 5 49 43 l18 39 89 0
88 0 16 -39 c15 -39 38 -58 49 -42 3 5 -26 78 -63 162 -52 118 -73 155 -88
157 -17 2 -31 -21 -91 -155z m125 34 c17 -39 32 -75 32 -79 0 -5 -31 -8 -70
-8 -38 0 -70 4 -70 8 0 5 11 30 24 58 13 27 26 59 30 72 4 12 10 22 14 22 4 0
22 -33 40 -73z"/>
</g>
</svg>
